<svg width="1759" height="391" viewBox="0 0 1759 391" fill="none" xmlns="http://www.w3.org/2000/svg">
<path d="M66.4939 350C50.3117 350 48 347.702 48 347.702V319.552C48 319.552 51.1786 320.127 60.7146 320.127C72.5622 320.127 77.4747 314.095 77.4747 304.328V86.8856H108.972V305.19C108.972 314.382 111.573 350 66.4939 350ZM77.4747 41.7885V1H108.972V41.7885H77.4747Z" fill="white"/>
<path d="M260.511 87H292V268.981H260.511V237.12C260.511 242.287 238.556 273 205.333 273C151.889 273 149 230.231 149 182.296V87H180.489V185.741C180.489 219.611 182.511 244.009 211.689 244.009C236.533 244.009 260.511 224.778 260.511 187.463V87Z" fill="white"/>
<path d="M367.02 270H336V88.2989H367.02V124.123C367.02 118.965 390.925 84 425.36 84C479.146 84 480 129.855 480 174.564V270H448.98V168.259C448.98 140.459 445.85 112.373 415.115 112.373C390.64 112.373 367.02 132.435 367.02 164.533V270Z" fill="white"/>
<path d="M512 229H552V270H512V229Z" fill="white"/>
<path d="M615.428 350H584V88.0043H615.428V123.185C615.428 118.037 637.918 84 673.96 84C731.627 84 757 125.759 757 174.669C757 223.578 732.78 273.632 673.96 273.632C637.918 273.632 615.428 239.882 615.428 236.735V350ZM723.265 174.383C723.265 143.206 710.002 107.74 670.5 107.74C642.243 107.74 613.41 134.34 613.41 177.815C613.41 226.153 644.838 248.462 673.383 248.462C710.002 248.462 723.265 205.845 723.265 174.383Z" fill="white"/>
<path d="M783 1H816V270H783V1Z" fill="white"/>
<path d="M960.813 229.955C960.813 242.783 933.867 273 895.453 273C861.34 273 845 248.199 845 220.262C845 161.824 930.427 162.679 958.807 160.968V143.009C959.38 115.928 938.167 107.661 920.393 107.661C894.593 107.661 881.407 122.769 881.407 144.149H847.007C847.007 120.204 862.773 84 920.393 84C959.667 84 990.053 103.385 990.053 143.294V226.819C990.053 241.643 998.94 243.353 1004.39 243.353C1012.99 243.353 1017 242.783 1017 242.783V270.719C1017 270.719 1013.85 273 997.507 273C966.26 272.715 960.813 245.919 960.813 229.955ZM958.52 199.452V179.783C929.853 180.923 875.96 185.769 875.96 220.262C875.96 242.498 892.3 247.914 908.353 247.914C934.727 247.914 958.52 223.398 958.52 199.452Z" fill="white"/>
<path d="M1072.78 271.043L1009 87H1042.8L1089.53 231.42L1136.26 87H1168L1101.28 283.676C1092.17 311.526 1083.06 350 1038.98 350C1019.87 350 1014.88 347.99 1014.88 347.99V317.269C1014.88 317.269 1024.87 318.704 1035.45 318.704C1057.49 318.704 1063.67 307.507 1070.43 281.666L1072.78 271.043Z" fill="white"/>
<path d="M1184 1H1214V270H1184V1Z" fill="white"/>
<path d="M1258 41.941V1H1290V41.941H1258ZM1290 270H1258V87.2069H1290V270Z" fill="white"/>
<path d="M1394.5 249.054C1406.4 249.054 1433.39 243.638 1433.39 221.403C1433.39 174.652 1321.93 206.864 1321.93 139.018C1321.93 108.516 1350.38 84 1387.24 84C1441.52 84 1455.74 122.484 1457.78 137.023H1424.98C1423.82 125.335 1415.4 107.946 1387.24 107.946C1368.96 107.946 1351.54 117.353 1351.54 133.887C1351.54 176.362 1463 145.29 1463 216.271C1463 248.199 1433.68 273 1394.5 273C1330.64 273 1317 231.38 1317 212.851H1349.8C1349.8 225.964 1359.38 249.054 1394.5 249.054Z" fill="white"/>
<path d="M1494.52 114.435H1466V87.2438H1494.52V30H1524.2V87.2438H1559.13V114.435H1524.2V229.495C1524.2 238.081 1529.15 244.092 1541.08 244.092C1552.14 244.092 1560 242.088 1560 242.088V270.138C1560 270.138 1552.72 273 1534.97 273C1490.74 273 1494.23 237.509 1494.23 228.636L1494.52 114.435Z" fill="white"/>
<path d="M1586 64.2183C1586 37.7424 1601.18 0 1649 0C1696.82 0 1712 38.024 1712 64.2183C1712 90.4127 1697.11 129 1649 129C1600.89 129 1586 90.6943 1586 64.2183ZM1701.69 64.2183C1701.69 33.5175 1682.5 8.44978 1649 8.44978C1615.5 8.44978 1596.31 33.7991 1596.31 64.2183C1596.31 94.6376 1615.5 120.55 1649 120.55C1682.22 120.55 1701.69 94.6376 1701.69 64.2183ZM1624.95 92.3843V32.9542H1650.72C1670.76 32.9542 1675.63 40.559 1675.63 50.9804C1675.63 59.9935 1671.91 66.7533 1658.74 68.4432L1676.2 92.1026H1665.32L1648.14 68.7249H1634.11V92.1026L1624.95 92.3843ZM1650.43 60.5568C1663.6 60.5568 1666.18 56.8952 1666.18 50.9804C1666.18 45.0655 1663.6 41.4039 1650.43 41.4039H1634.11V60.8384H1650.43V60.5568Z" fill="white"/>
</svg>
